<?xml version="1.0" encoding="utf-8"?>
<!-- Generator: Adobe Illustrator 19.1.0, SVG Export Plug-In . SVG Version: 6.00 Build 0)  -->
<svg version="1.1" id="Lager_1" xmlns="http://www.w3.org/2000/svg" xmlns:xlink="http://www.w3.org/1999/xlink" x="0px" y="0px"
	 viewBox="0 0 400 200" style="enable-background:new 0 0 400 200;" xml:space="preserve">
<style type="text/css">
	.st0{fill:#3A3A3A;}
	.st1{fill:none;stroke:#000000;stroke-width:13;stroke-miterlimit:10;}
</style>
<g>
	<g>
		<path class="st0" d="M157.2,108.6c-8.2-12.9-16.4-25.8-24.6-38.6c3.6-0.5,7.2-1,10.9-1.5c4.4-0.6,8.4,0,11.9,1.7
			c3.5,1.7,6,4.2,7.6,7.6c1.1,2.3,1.5,4.3,1.1,6.1c-0.3,1.8-1.3,3.2-3,4.3c1.7,0.7,3.4,1.7,5.3,3c1.9,1.3,4.7,3.6,8.3,6.9
			c2.3,2.1,4,3.7,5.2,4.8c1,0.9,2,1.8,3,2.6c-1.9,0.2-3.8,0.4-5.7,0.6c-0.9-0.8-1.8-1.6-2.7-2.4c-0.1-0.1-0.3-0.2-0.5-0.4
			c-0.6-0.5-1.1-1-1.7-1.4c-1-0.9-2-1.8-3-2.7c-1.1-1-2.2-1.9-3.3-2.9c-1.9-1.5-3.6-2.6-5-3.5c-1.4-0.8-2.6-1.4-3.6-1.7
			c-1-0.3-2.4-0.4-4.1-0.1c-0.5,0.1-0.9,0.1-1.4,0.2c3.4,5.6,6.7,11.3,10.1,16.9C160.4,108.2,158.8,108.4,157.2,108.6z M143.5,73.6
			c-0.6,0.1-1.2,0.2-1.8,0.2c2.4,4.1,4.9,8.2,7.3,12.3c0.7-0.1,1.4-0.2,2.1-0.3c2.8-0.4,4.6-0.9,5.4-1.5c0.8-0.6,1.2-1.4,1.3-2.5
			c0.1-1.1-0.2-2.2-0.8-3.5c-0.6-1.2-1.6-2.3-2.8-3.2c-1.2-0.9-2.6-1.5-4.1-1.8C148.7,73.2,146.5,73.2,143.5,73.6z"/>
		<path class="st0" d="M187,105.1c-5.3-13.2-10.6-26.4-15.9-39.6c3.6-0.3,7.3-0.6,10.9-0.9c4.4-0.3,8.2,0.4,11.3,2.3
			c3.1,1.8,5,4.5,5.9,7.9c0.6,2.3,0.5,4.4-0.2,6.2c-0.7,1.8-2,3.1-3.8,4.1c1.5,0.8,3,1.8,4.5,3.2c1.5,1.4,3.8,3.8,6.7,7.3
			c1.8,2.2,3.2,3.9,4.1,5c0.8,0.9,1.6,1.9,2.4,2.8c-1.9,0.1-3.8,0.2-5.8,0.3c-0.7-0.9-1.4-1.7-2.2-2.6c-0.1-0.1-0.2-0.2-0.4-0.5
			c-0.5-0.5-0.9-1-1.4-1.5c-0.8-0.9-1.6-1.9-2.4-2.8c-0.9-1-1.7-2-2.6-3c-1.6-1.6-3-2.8-4.2-3.7c-1.2-0.9-2.3-1.5-3.2-1.9
			c-0.9-0.4-2.2-0.5-4-0.3c-0.5,0-0.9,0.1-1.4,0.1c2.1,5.8,4.2,11.5,6.3,17.3C190.2,104.9,188.6,105,187,105.1z M180.9,69.6
			c-0.6,0-1.2,0.1-1.8,0.1c1.5,4.2,3.1,8.4,4.6,12.6c0.7-0.1,1.4-0.1,2.1-0.2c2.8-0.2,4.7-0.6,5.6-1.2c0.9-0.6,1.5-1.4,1.8-2.4
			c0.3-1,0.3-2.2-0.1-3.5c-0.4-1.3-1-2.4-2-3.3c-1-1-2.2-1.6-3.6-2C186.1,69.5,183.9,69.4,180.9,69.6z"/>
		<path class="st0" d="M230.9,61.8c6.8-0.1,12.5,1.9,16.7,5.9c4.2,4,5.9,9,5.5,14.9c-0.4,6-2.7,10.8-6.5,14.7
			c-3.8,3.9-8.1,5.8-13.4,5.9c-5.1,0.1-9.5-1.8-13.6-5.5c-4.1-3.8-7-8.5-8.1-14.4c-1.2-6-0.1-11.1,3.6-15.2
			C218.7,64,224.1,61.9,230.9,61.8z M231.4,67.2c-4.9,0.1-8.7,1.6-11.4,4.6c-2.7,3-3.6,6.7-2.9,11.2c0.7,4.3,2.6,7.9,5.7,10.7
			c3,2.8,6.4,4.2,10.3,4.1c3.9-0.1,7.1-1.5,9.8-4.5c2.7-2.9,4.3-6.6,4.4-11c0.2-4.3-1.2-7.9-4.3-10.8
			C240,68.6,236.1,67.2,231.4,67.2z"/>
		<path class="st0" d="M317.6,66c2.1,0.2,4.1,0.4,6.2,0.6c-12,12.6-22.7,25.3-32.1,38.3c-0.4,0-0.7-0.1-1.1-0.1
			c0.2-11.1-0.5-22.2-2.1-33.3c-7.6,10.6-14.3,21.2-20.1,32c-0.3,0-0.7,0-1,0c-2-13.7-5.4-27.3-10.1-40.9c2.1,0,4.2,0.1,6.3,0.2
			c2.9,9.4,5.1,18.8,6.8,28.2c5.2-9.1,10.9-18.1,17.3-27.1c2,0.1,3.9,0.2,5.9,0.4c1.4,9.5,2.1,18.9,2.2,28.3
			C302.5,83.5,309.8,74.7,317.6,66z"/>
		<path class="st0" d="M326.6,91.1c-0.9-1-1.8-2.1-2.7-3.1c-1.7-1.9-2.8-3.8-3.2-5.5c-0.4-1.7-0.1-3.6,0.9-5.7
			c1.5-3.1,3.8-5.5,7.2-7.2c3.3-1.7,6.9-2.3,10.7-1.8c3.6,0.5,6.4,1.8,8.3,4.1c-1.3,2.1-2.6,4.2-3.9,6.3c-1.3-3.1-3.8-4.9-7.3-5.3
			c-2-0.3-3.8,0-5.5,0.7c-1.7,0.7-2.9,1.7-3.6,3c-0.6,1.2-0.7,2.3-0.4,3.5c0.4,1.1,1.2,2.4,2.5,3.7c1,1,1.9,2,2.8,3.1
			c3.1,3.5,3,7.4,0.3,11.7c-2,3.1-4.5,5.5-7.6,7.2c-3,1.7-5.9,2.4-8.8,2c-3.3-0.4-5.7-2-7.3-4.6c1.2-2.4,2.3-4.8,3.5-7.2
			c0.9,4.2,3,6.4,6.5,6.9c1.6,0.2,3.1-0.1,4.7-1c1.6-0.8,2.9-2,3.7-3.4C329,96.1,328.8,93.6,326.6,91.1z"/>
	</g>
</g>
<g>
	<g>
		<g>
			<path d="M54.4,167.9c-4.9,0.6-9.8,1.3-14.7,2c3-53.5,11.7-107.3,26.2-161c5.7-0.5,11.3-1,17-1.5c33.7,49.6,61.7,100.3,84,151.6
				c-5,0.1-10,0.3-15,0.5c-6.1-13.4-12.7-26.8-19.6-40.1c-24.7,1.4-49.3,3.5-73.9,6.3C56.7,139.8,55.4,153.8,54.4,167.9z
				 M60.3,110.8c21.5-2.4,43-4.2,64.6-5.5c-14.4-26.8-30.3-53.4-47.8-79.7C70,54,64.4,82.4,60.3,110.8z"/>
		</g>
		<path class="st1" d="M57.3,118.3c101.8-11.9,204.7-11.3,306.5,2"/>
		<path d="M344.6,95c11,9,21.4,18.1,31.4,27.4c-14.7,5.8-28.9,11.8-42.6,18C337.1,125.3,340.9,110.2,344.6,95z"/>
	</g>
</g>
</svg>
